<svg xmlns="http://www.w3.org/2000/svg" version="1.1" width="600px" height="600px" viewBox="0 0 200 200" style="overflow:hidden!important;"><g id="svga-group-wrapper"><g id="svga-group-backs-single"><path id="SvgjsPath19667" d="M0 0h200v200H0V0z" fill="#ffffff" stroke-width="none" opacity="1"></path></g><g id="svga-group-humanwrap-move" transform="matrix(1,0,0,1,0,0)"><g id="svga-group-humanwrap"><g id="svga-group-hair-back-move" transform="matrix(1,0,0,1,0,0)"><g id="svga-group-hair-back"></g></g><g id="svga-group-humanbody-back"><path id="SvgjsPath19618" d="m170 180.3-27.3-6.9-18-9.9-1.5-28.2H76.8l-1.5 28.2-18 9.9-27.3 6.9-9.1 19.7-3 20h164.2l-3-20z" fill="#f0c7b1" stroke-width="none" opacity="1"></path><path id="SvgjsPath19619" d="m76.8 135.3-1.5 28.2-18 9.9-27.3 6.9-9.1 19.7-3 20h14.6v-20l2.7-17.7 23.8-6.4 24.7-8.3 3.5-32.3z" fill="#d19271" stroke-width="none" opacity="1"></path></g><g id="svga-group-chinshadow-single"><path id="SvgjsPath19614" d="m121.5 149.1 2.2-3.8-.5-10H76.8l-.8 15.9 13.8 9.6h14.8z" fill="#c27b55" stroke-width="none" opacity="1"></path></g><g id="svga-group-humanbody-front"><path id="SvgjsPath19620" d="m92.8 168.3 2 7.9 6.9 4.6s-8.5-3-8.7-3.6c-.2-.6-.2-8.9-.2-8.9z" fill="#d19271" stroke-width="none" opacity="1"></path></g><g id="svga-group-clothes-single"><path id="SvgjsPath19482" d="m127 164.4-1.2-2.1-1-5-8.7 10.1-16.1 12.7-16.1-12.7-8.7-10.1-1 5-1.2 2.1L87.8 220h24.4z" fill="#f7f7f7" stroke-width="none" opacity="1"></path><path id="SvgjsPath19483" d="m87.3 186.5-5.8 8.7.4 1.4 6.2-9 7.8-6.5 4.1-1.1-4.2.4-8.5 6.1zm25.4 0-8.4-6.1-4.2-.4 4.1 1.1 3.7 3.3-4.8 10.3 2.7 25.2h4.2l-2.2-16.4-1.2-7.2 1.3-2.8 3.5-6.4.6.5 6.2 9 .4-1.4-5.9-8.7z" fill="#cecece" stroke-width="none" opacity="1"></path><path id="SvgjsPath19484" d="m73.3 163.7-14.9 7.1.3.9-6.5 1.5-24.6 6.2-4.3-.5-2.2 2.6-4.7 38.5h73.7L78 179.4l-4.7-15.7zM179 181.5l-2.2-2.6-4.3.5-24.6-6.2-6.5-1.5.3-.9-14.9-7.1-4.7 15.7-12.2 40.6h73.7l-4.6-38.5z" fill="#386e77" stroke-width="none" opacity="1"></path><path id="SvgjsPath19485" d="m32.2 186.6-4.3-6.1 3.5 7 3.4 17 1.3 15.5-.2-16-3.7-17.4zm38.1-17-9.6 4.6-2.1-2.5 1.3 2.8-3.7 1.8L75.6 220h1.8l-19.2-43.3 12.1-7.1zM21 181.5 16.4 220H23c.1-4.2.2-13.1.1-13.9-.1-1 1.4-23.2 1.4-23.2l2.3-3.6-3.4-.4-2.4 2.6zm146.8 5.1-3.6 17.4-.1 15.9 1.3-15.5 3.4-17 3.5-7-4.5 6.2zm-26.5-14.9-2.1 2.5-9.6-4.6 12.1 7.1-19.1 43.3h1.8l19.3-43.7-3.7-1.8 1.3-2.8z" fill="#184f58" stroke-width="none" opacity="1"></path><path id="SvgjsPath19486" d="m103.7 195.3 4.9-10.7-4.4-3.8-4.2-.7-4.2.7-4.4 3.8 4.9 10.7-3 10.2L92 220h16l-1.3-14.5z" fill="#222222" stroke-width="none" opacity="1"></path><path id="SvgjsPath19487" d="m96.7 195.3 1.2.1-.6 6.2 1.7.1-.3-6.1 1.7.1-.3 8.3h2.3l-1-8.2 1.8-.4-3.9-.3z" fill="#000000" stroke-width="none" opacity="1"></path></g><g id="svga-group-head" transform="matrix(1,0,0,1,0,0)"><g id="svga-group-ears-left-move" transform="matrix(1,0,0,1,0,0)"><g id="svga-group-ears-left"><path id="SvgjsPath19512" d="m66.3 102.2-3-7.2-9.2-8-3.6 12.9 4.7 12.7-.4 5.6 5 2.4 6-11.1z" fill="#f0c7b1" stroke-width="none" opacity="1"></path><path id="SvgjsPath19513" d="m52.5 100 1.9-8.4 3.7 10.6-.8 1 .4 5.9s-3.3-2.1-3.3-2.7.3-6.2.3-6.2l.9-.3-.9-4.5-1.6 6.1.4 3-1-4.5z" fill="#d19271" stroke-width="none" opacity="1"></path><path id="SvgjsPath19514" d="m60.4 111.8-.7-12L54.1 87l9.2 8 3 7.2-.5 7.3-6 11.1-5-2.4 4.8.3z" fill="#e1ac8f" stroke-width="none" opacity="1"></path></g></g><g id="svga-group-ears-right-move" transform="matrix(1,0,0,1,0,0)"><g id="svga-group-ears-right"><path id="SvgjsPath19515" d="m133.7 102.2 3-7.2 9.2-8 3.6 12.9-4.7 12.7.4 5.6-5 2.4-6-11.1z" fill="#f0c7b1" stroke-width="none" opacity="1"></path><path id="SvgjsPath19516" d="m147.5 100-1.9-8.4-3.7 10.6.8 1-.4 5.9s3.3-2.1 3.3-2.7-.3-6.2-.3-6.2l-.9-.3.9-4.5 1.6 6.1-.4 3 1-4.5z" fill="#d19271" stroke-width="none" opacity="1"></path><path id="SvgjsPath19517" d="m139.6 111.8.7-12 5.6-12.8-9.2 8-3 7.2.5 7.3 6 11.1 5-2.4-4.8.3z" fill="#e1ac8f" stroke-width="none" opacity="1"></path></g></g><g id="svga-group-faceshape-wrap"><g id="svga-group-faceshape-single"><path id="SvgjsPath19600" d="M138.1 60c-6.9-11.6-19.7-19.5-19.7-19.5-7.2-1.5-18.4-2.3-18.4-2.3s-11.1.8-18.4 2.3c0 0-12.8 7.9-19.7 19.5 0 0-5.1 14.5-5.3 24.8l4.9 33.9 14.2 24.8 16.9 11.7h14.9l16.9-11.7 14.2-24.8 4.9-33.9c-.3-10.3-5.4-24.8-5.4-24.8z" fill="#f0c7b1" stroke-width="none" opacity="1"></path><path id="SvgjsPath19601" d="m92.7 152.7-14.6-12.3s-11.4-20.9-11.8-21.7c-.4-.9-5-34.3-5-34.3.2-4.8 4.5-21.5 5-22.2 2.1-3.2 16.5-18 16.5-18l17.1-4.1 18.5.4c-7.2-1.5-18.4-2.3-18.4-2.3s-11.1.8-18.4 2.3c0 0-12.8 7.9-19.7 19.5 0 0-5.1 14.5-5.3 24.8l4.9 33.9 14.2 24.8 16.9 11.7h14.9l16.9-11.7-18 10.4-13.7-1.2z" fill="#d19271" stroke-width="none" opacity="1"></path></g></g><g id="svga-group-mouth-single-move" transform="matrix(1,0,0,1,0,0)"><g id="svga-group-mouth-single"><path id="SvgjsPath19689" d="m84.24 127.12 9.86 1.08 6.5 2.2 6-2.7 9.84-.08-10.24-1.72H93.3z" fill="#da7c87" stroke-width="none" opacity="1" transform="translate(0 2)"></path><path id="SvgjsPath19690" d="m88.92 131.27 6.38 2.43 10.5.3 4.52-2.63L106 135H95.2z" fill="#d19271" stroke-width="none" opacity="1" transform="translate(0 2)"></path></g></g><g id="svga-group-eyes-left-move" transform="matrix(1,0,0,1,0,0)"><g id="svga-group-eyes-left"><g id="svga-group-eyesback-left"><path id="SvgjsPath19556" d="M91.2 95.7 86 91.1l-9 .1-7 3.8s5.8 4.3 7.2 4.9l8.8-.4 5.2-3.8z" fill="#ffffff" stroke-width="none" opacity="1"></path></g><g id="svga-group-eyesiriswrapper-left" transform="matrix(1,0,0,1,0,0)"><g id="svga-group-eyesiriscontrol-left" transform="matrix(1,0,0,1,0,0)"><g id="svga-group-eyesiris-left"><path id="SvgjsPath19635" d="m82.2 100.2-5.5-2-1-5.8 4.5-3.8 5.5 2.1 1 5.7z" fill="#67481f" stroke-width="none" opacity="1"></path><path id="SvgjsPath19636" d="m78.2 95.4.6-3.1 3-1 2.4 2.1-.7 3.1-3 1z" fill="#000000" stroke-width="none" opacity="1"></path><path id="SvgjsPath19637" d="m78 91.7 2.2 2.1.6-.4-1.2-2.7z" fill="#ffffff" stroke-width="none" opacity="1"></path><path id="SvgjsPath19638" d="m82.1 96.4.5 1 .8-.4-.4-1z" fill="#ffffff" stroke-width="none" opacity="1"></path></g></g></g><g id="svga-group-eyesfront-left"><path id="SvgjsPath19564" d="M67.1 89.3v11.9l7.9 8.4h11.2l7.9-8.4V89.3l-7.9-8.4H75l-7.9 8.4zm3 5.7 7-3.8 9-.1 5.1 4.6-5.2 3.9-8.8.4c-1.3-.8-7.1-5-7.1-5z" fill="#f0c7b1" stroke-width="none" opacity="1"></path><path id="SvgjsPath19565" d="m91.7 96.1-1.2-.6-4.7-4.1H77l-7.2 4-1 .2 7.9-5 9.6-.1z" fill="#000000" stroke-width="none" opacity="1"></path><path id="SvgjsPath19566" d="m90.8 94-4-4.1-9.8-.1-8.1 3.6 8.1-3.1h9.7z" fill="#e1ac8f" stroke-width="none" opacity="1"></path></g></g></g><g id="svga-group-eyes-right-move" transform="matrix(1,0,0,1,0,0)"><g id="svga-group-eyes-right"><g id="svga-group-eyesback-right"><path id="SvgjsPath19557" d="m108.8 95.7 5.1-4.6 9 .1 7 3.8s-5.8 4.3-7.2 4.9l-8.8-.4-5.1-3.8z" fill="#ffffff" stroke-width="none" opacity="1"></path></g><g id="svga-group-eyesiriswrapper-right" transform="matrix(1,0,0,1,0,0)"><g id="svga-group-eyesiriscontrol-right" transform="matrix(1,0,0,1,0,0)"><g id="svga-group-eyesiris-right"><path id="SvgjsPath19639" d="m119.8 100.2-5.5-2-1-5.8 4.5-3.8 5.5 2.1 1 5.7z" fill="#67481f" stroke-width="none" opacity="1"></path><path id="SvgjsPath19640" d="m115.8 95.4.7-3.1 3-1 2.3 2.1-.6 3.1-3 1z" fill="#000000" stroke-width="none" opacity="1"></path><path id="SvgjsPath19641" d="m115.7 91.7 2.2 2.1.6-.4-1.2-2.7z" fill="#ffffff" stroke-width="none" opacity="1"></path><path id="SvgjsPath19642" d="m119.7 96.4.6 1 .8-.4-.4-1z" fill="#ffffff" stroke-width="none" opacity="1"></path></g></g></g><g id="svga-group-eyesfront-right"><path id="SvgjsPath19567" d="M125 80.8h-11.2l-7.9 8.4v11.9l7.9 8.4H125l7.9-8.4V89.3l-7.9-8.5zm-2.3 19.1-8.8-.4-5.1-3.8 5.1-4.6 9 .1 7 3.8s-5.8 4.2-7.2 4.9z" fill="#f0c7b1" stroke-width="none" opacity="1"></path><path id="SvgjsPath19570" d="m108.3 96.1 1.2-.6 4.7-4.1h8.8l7.2 4 1 .2-7.9-5-9.6-.1z" fill="#000000" stroke-width="none" opacity="1"></path><path id="SvgjsPath19571" d="m109.2 94 4-4.1 9.8-.1 8.1 3.6-8.1-3.1h-9.7z" fill="#e1ac8f" stroke-width="none" opacity="1"></path></g></g></g><g id="svga-group-facehighlight-single"></g><g id="svga-group-eyebrows-left-move" transform="matrix(1,0,0,1,0,0)"><g id="svga-group-eyebrows-left-rotate" transform="matrix(1,1.7453292519943295e-9,-1.7453292519943295e-9,1,1.4695672234665835e-7,-1.3875367699256458e-7)"><g id="svga-group-eyebrows-left"><path id="SvgjsPath19460" d="M92.8 80.6 91.1 86l-2.4 1-14.1-2.3-3.3 1.1-5.1 3.3s3.4-5.3 3.5-5.7c.1-.3 2.5-4.1 2.5-4.1l11.6.6 9 .7z" fill="#2a232b" stroke-width="none" opacity="1"></path><path id="SvgjsPath19461" d="m77.5 85.3-.4-.1-1.2-2.9-3.8-2.8 1.8.5 3.1 1.8c.1 0 .3 2.1.5 3.5zm2.9.4h-.2c.1-.9.1-2.4.1-2.6 0-.2.6-1.5 1.1-2.6l.3.1c-.4 1.6-.9 3.9-1.3 5.1zm4.6.8 5.6-5.6h.6c-.8 1.4-2 3.3-2.2 3.5-.2.1-1.8 1.2-3.3 2.2l-.7-.1zm.1-5.6h.2l-1.5 3.6-1.3 1.6-.4-.1 3-5.1zm-16.1 4c1.4-.5 2.6-1 2.8-1 .2-.1 1.3.5 2.2 1.1l-.8.3c-.6-.1-1-.2-1.1-.3-.1 0-1.8.3-3.5.7.1-.3.3-.5.4-.8z" fill="#1b141c" stroke-width="none" opacity="1"></path></g></g></g><g id="svga-group-eyebrows-right-move" transform="matrix(1,0,0,1,0,0)"><g id="svga-group-eyebrows-right-rotate" transform="matrix(1,1.7453292519943295e-9,-1.7453292519943295e-9,1,1.4713126006427046e-7,-2.1039944897438545e-7)"><g id="svga-group-eyebrows-right"><path id="SvgjsPath19462" d="m107.2 80.6 1.8 5.5 2.4 1 14.1-2.3 3.3 1.1 5.1 3.3s-3.4-5.3-3.5-5.7c-.1-.3-2.5-4.1-2.5-4.1l-11.6.6-9.1.6z" fill="#2a232b" stroke-width="none" opacity="1"></path><path id="SvgjsPath19463" d="m122.5 85.3.4-.1 1.2-2.9 3.8-2.8-1.8.5-3.1 1.8c-.1 0-.3 2.1-.5 3.5zm-2.9.4h.2c-.1-.9-.1-2.4-.1-2.6 0-.2-.6-1.5-1.1-2.6l-.3.1c.4 1.6.9 3.9 1.3 5.1zm-4.6.8-5.6-5.6h-.6c.8 1.4 2 3.3 2.2 3.5.2.1 1.8 1.2 3.3 2.2l.7-.1zm-.1-5.6h-.2l1.5 3.6 1.3 1.6.4-.1-3-5.1zm16.1 4c-1.4-.5-2.6-1-2.8-1-.2-.1-1.3.5-2.2 1.1l.8.3c.6-.1 1-.2 1.1-.3.1 0 1.8.3 3.5.7-.1-.3-.3-.5-.4-.8z" fill="#1b141c" stroke-width="none" opacity="1"></path></g></g></g><g id="svga-group-beardwrap"><g id="svga-group-beard-single-move" transform="matrix(1,0,0,1,0,0)"><g id="svga-group-beard-single"></g></g></g><g id="svga-group-mustache-single-move" transform="matrix(1,0,0,1,0,0)"><g id="svga-group-mustache-single"></g></g><g id="svga-group-nose-single-move" transform="matrix(1,0,0,1,0,0)"><g id="svga-group-nose-single"><path id="SvgjsPath19672" d="m102.25 118.74-4.52.04-2.04-2.71-3.77.47-1.73-3.34 3.91-7.46h11.82l3.96 7.54-1.81 3.34-3.66-.78z" fill="#f0c7b1" stroke-width="none" opacity="1" transform="translate(0 1)"></path><path id="SvgjsPath19673" d="m105.92 105.74 3.52 7.45-1.56 2.88-2.69-.21.21-.43 2.8-.96-3.42.21-2.7 3.73h-4.14l-2.7-3.73-3.42-.21 2.8.96.21.43-2.7.21-1.55-2.88 3.52-7.45-4.35 7.56 2.07 3.73 3.94-.54 1.97 2.67h4.56l1.97-2.67 3.94.54 2.07-3.73z" fill="#d19271" stroke-width="none" opacity="1" transform="translate(0 1)"></path><path id="SvgjsPath19674" d="m93.14 108.71 2.71 4.47 7.36.12-7.42.48z" fill="#d19271" stroke-width="none" opacity="1" transform="translate(0 1)"></path><path id="SvgjsPath19675" d="m95.31 107.2 2.06 4.71 5.92.18 1.61-5.13z" fill="#f8d5c3" stroke-width="none" opacity="1" transform="translate(0 1)"></path></g></g><g id="svga-group-hair-front"><path id="SvgjsPath19711" d="M143.01 63.98c-2.54-5.83-19.15-23.84-19.15-23.84L100 36.33l-23.86 3.8s-16.61 18-19.15 23.84l-.93 24.3 4.58 4.03h2.56l.73-24.9 17.21-16.84 7.32 8.24L100 60.55l11.54-1.75 7.32-8.24 17.21 16.84.73 24.9h2.56l4.58-4.03-.93-24.29z" fill="#1b141c" stroke-width="none" opacity="1"></path><path id="SvgjsPath19712" d="M123.86 40.14 100 36.33l-9.09 1.45-11.22 4.57s8.72 13.88 9.72 13.88c.99 0 12.49 1.78 13.48 1.59.99-.2 8.33-.99 8.33-.99l8.33-7.53 18.04 18.24.92 24.77h.86l4.58-4.03-.93-24.3c-2.55-5.84-19.16-23.84-19.16-23.84z" fill="#2a232b" stroke-width="none" opacity="1"></path></g><g id="svga-group-glasses-single-move" transform="matrix(1,0,0,1,0,0)"><g id="svga-group-glasses-single"></g></g></g></g></g><rect id="svga-credit-rect" width="200" height="15" x="0" y="185" fill="#ecf0f1" opacity="0.5" style="display: none;"></rect><text id="svga-credit-text" font-family="Avenir Next, Roboto, Helvetica, Arial, sans-serif" font-size="10px" text-anchor="start" font-weight="400" size="10px" anchor="start" weight="400" fill="#333333" x="33.40447998046875" y="182.60824704170227" style="display: none;"><tspan id="SvgjsTspan19454" dy="13" x="33.40447998046875">Created on AvatarMaker.com</tspan></text></g><defs id="SvgjsDefs19401"></defs></svg>